PathFileType	4	(X/Y/Z)	C:\Users\Admin\Desktop\Capture Files\05302019 Reflex Trials\StaticTrial_1-Unnamed.trc
DataRate	CameraRate	NumFrames	NumMarkers	Units	OrigDataRate	OrigDataStartFrame	OrigNumFrames
300.00	300.00	      15	0	mm	300.00	853	      1137
Frame#	Time	
		

853	2.840	579.24304	-624.16956	918.08575	862.37671	-847.59662	1271.03674	497.88867	-499.41852	874.56635	895.98920	-724.88770	1115.08020	432.00391	-312.82925	455.56015	179.97908	-512.72607	610.95099	158.04497	-529.19080	409.35239	822.60687	-766.02441	1020.91180	290.97467	-499.35535	729.55597				182.81395	-589.05145	724.94952	370.79028	-425.48630	714.92249	499.76996	-364.91797	739.18201				428.42938	-327.15079	639.82019	
854	2.843	579.23584	-624.17487	918.09833				497.89902	-499.42148	874.56195	895.94763	-724.82562	1115.04871	432.02371	-312.84146	455.56802	179.97908	-512.71472	610.96771	158.02423	-529.17877	409.35556	822.58069	-766.02026	1020.88464	290.18915	-498.75613	730.08221				182.83511	-589.04791	724.94739	370.78531	-425.48337	714.92981	499.77737	-364.92041	739.18097				428.42273	-327.15259	639.82654	
855	2.847	579.23260	-624.17468	918.07397				497.89230	-499.41144	874.55823	896.00140	-724.89789	1115.05994	432.01630	-312.82370	455.57117	179.97775	-512.70129	610.96106	158.04155	-529.18280	409.35458	822.52960	-766.00146	1020.85938	290.96252	-499.34576	729.57343				182.81119	-589.06702	724.94672	370.78503	-425.49771	714.93414	499.77197	-364.92419	739.19086				428.44333	-327.16373	639.82422	
856	2.850	579.21259	-624.17072	918.09351				497.88855	-499.42307	874.56964	895.98425	-724.90179	1115.03601	432.00558	-312.80927	455.57462	179.96571	-512.71930	610.96960	158.06493	-529.17456	409.34937	822.57776	-766.00714	1020.91077	290.95151	-499.33734	729.56903				182.80882	-589.04889	724.94873	370.79077	-425.48853	714.92877	499.77728	-364.93088	739.17279				428.43207	-327.15262	639.82990	
857	2.853	579.23907	-624.16559	918.09491				497.89539	-499.41718	874.54645	895.96332	-724.85529	1115.02026	432.01514	-312.83157	455.57034	179.96359	-512.69092	610.97113	158.04836	-529.16846	409.36530	822.61871	-766.06873	1020.87250	290.17227	-498.75781	730.07776				182.80554	-589.05090	724.96466	370.77783	-425.49976	714.92621	499.77811	-364.92041	739.18518				428.42966	-327.16891	639.82532	
858	2.857	579.23096	-624.15790	918.09265				497.88095	-499.40848	874.56732	895.87640	-724.80621	1115.02539	431.99393	-312.82526	455.56607	179.97546	-512.73163	610.96271	158.04362	-529.15924	409.36087	822.54309	-766.00702	1020.85559	290.94797	-499.33386	729.56482				182.80023	-589.05273	724.95258	370.77005	-425.49396	714.92798	499.75983	-364.91937	739.17603				428.41669	-327.15021	639.82123	
859	2.860	579.22351	-624.16351	918.09015				497.86719	-499.40811	874.56451	895.95612	-724.89734	1115.04285	432.00427	-312.81381	455.55225	179.99501	-512.70618	610.96472	158.03380	-529.14429	409.36246	822.56830	-766.05066	1020.86823	290.95911	-499.34778	729.57660				182.79074	-589.05481	724.95892	370.79474	-425.50168	714.91821	499.76050	-364.92435	739.19543				428.42953	-327.17078	639.81921	
860	2.863	579.22736	-624.16046	918.09906				497.86789	-499.42062	874.56763	895.91180	-724.87823	1115.02808	432.01913	-312.82523	455.55334	179.97876	-512.69678	610.96558	158.06261	-529.16296	409.33453	822.60938	-766.10895	1020.84979	290.94986	-499.35172	729.57477				182.79417	-589.05206	724.95905	370.77002	-425.46158	714.92474	499.75433	-364.92249	739.19318				428.43860	-327.16586	639.83051	
861	2.867	579.21930	-624.17145	918.09186				497.85318	-499.39740	874.56720	895.95605	-724.91534	1115.00354	432.01013	-312.82254	455.56146	179.96278	-512.69495	610.95074	158.05347	-529.13837	409.35965	822.53101	-766.04553	1020.84167	290.96011	-499.32730	729.58154				182.79440	-589.04779	724.94458	370.78546	-425.50125	714.90991	499.75708	-364.91745	739.20758				428.44409	-327.17822	639.82257	
862	2.870	579.21075	-624.15424	918.10242				497.85980	-499.40417	874.56616	895.92236	-724.88147	1115.00684	432.01508	-312.80127	455.57166	179.96971	-512.70789	610.96625	158.08368	-529.14520	409.34277	822.56177	-766.09253	1020.85046	290.95883	-499.33850	729.57178				182.79964	-589.05988	724.94153	370.78455	-425.50784	714.89972	499.75931	-364.92947	739.18439				428.43192	-327.16669	639.82843	
863	2.873	579.22754	-624.17236	918.09192				497.84268	-499.42459	874.56061	895.95807	-724.94312	1115.00952	432.00983	-312.81110	455.55844	179.98427	-512.70734	610.95502	158.06535	-529.12732	409.36200	822.58313	-766.08374	1020.82983	290.15317	-498.75150	730.08557				182.79739	-589.06366	724.94470	370.77893	-425.51584	714.90839	499.74106	-364.91254	739.20239				428.42896	-327.15594	639.82037	
864	2.877	579.22913	-624.16296	918.11163				497.85864	-499.40698	874.57971	895.89557	-724.85779	1115.02795	432.01276	-312.81586	455.57382	179.95462	-512.67944	610.96729	158.06749	-529.12598	409.35666	822.53046	-766.05188	1020.83307	290.96167	-499.36334	729.56653				182.79674	-589.04425	724.93909	370.76764	-425.49554	714.91608	499.73276	-364.91956	739.19580				428.44186	-327.16150	639.82202	
865	2.880	579.21338	-624.14471	918.11084				497.86230	-499.41501	874.54419	895.96869	-724.94116	1114.99365	432.01724	-312.80893	455.58618	179.96893	-512.69434	610.96918	158.07872	-529.12360	409.33347	822.58026	-766.12433	1020.86407	290.94064	-499.36322	729.58783				182.78906	-589.07587	724.90833	370.76871	-425.49408	714.90161	499.73428	-364.91995	739.18567				428.43463	-327.15475	639.81854	
866	2.883	579.20941	-624.17548	918.10767				497.85135	-499.40283	874.57751	895.86365	-724.87299	1114.99524	432.02194	-312.78992	455.56793	179.97256	-512.70105	610.97107	158.08260	-529.11279	409.32611	822.49237	-766.03882	1020.80042	290.14575	-498.74445	730.09698				182.78876	-589.06592	724.94177	370.75119	-425.49860	714.91364	499.72958	-364.92300	739.20203				428.42938	-327.16006	639.81970	
867	2.887	579.20264	-624.13727	918.10449				497.86472	-499.42148	874.54803	895.95093	-724.98462	1115.01721	432.03110	-312.81824	455.56424	179.98761	-512.70673	610.95862	158.08182	-529.10590	409.33997	822.54382	-766.13861	1020.83783	290.17133	-498.74588	730.10931				182.80040	-589.04321	724.93097	370.76276	-425.50082	714.90271	499.71814	-364.92581	739.20227				428.40363	-327.14734	639.82507	
